<svg viewBox="0 0 32 32" fill="none" xmlns="http://www.w3.org/2000/svg">
  <defs>
    <linearGradient id="rose-gold-fav" x1="0%" y1="0%" x2="100%" y2="100%">
      <stop offset="0%" stop-color="#e5a88f"/>
      <stop offset="100%" stop-color="#c8856c"/>
    </linearGradient>
  </defs>
  <!-- Simplified S-curve -->
  <path
    d="M16 3C11 3 7 7 7 12C7 15 9 17 11 18C9 19 7 22 7 25C7 28 10 31 14 31C16 31 18 30 19 28"
    stroke="#0a0a0a"
    stroke-width="2.5"
    stroke-linecap="round"
    fill="none"
  />
  <path
    d="M16 29C21 29 25 25 25 20C25 17 23 15 21 14C23 13 25 10 25 7C25 4 22 1 18 1C16 1 14 2 13 4"
    stroke="#0a0a0a"
    stroke-width="2.5"
    stroke-linecap="round"
    fill="none"
  />
  <!-- Rose gold center -->
  <circle cx="16" cy="16" r="2.5" fill="url(#rose-gold-fav)"/>
</svg>
