<svg viewBox="0 0 64 64" fill="none" xmlns="http://www.w3.org/2000/svg">
  <defs>
    <linearGradient id="rose-gold-icon" x1="0%" y1="0%" x2="100%" y2="100%">
      <stop offset="0%" stop-color="#e5a88f"/>
      <stop offset="50%" stop-color="#d4967d"/>
      <stop offset="100%" stop-color="#c8856c"/>
    </linearGradient>
  </defs>
  <!-- Flowing S-curve dancers -->
  <path
    d="M28 6C20 6 14 12 14 20C14 25 17 29 21 32C17 35 14 39 14 44C14 52 20 58 28 58C32 58 35 56 37 53L40 47C42 44 46 42 50 43C52 44 53 46 53 49C53 52 51 54 48 54"
    stroke="#0a0a0a"
    stroke-width="3"
    stroke-linecap="round"
    fill="none"
  />
  <path
    d="M36 58C44 58 50 52 50 44C50 39 47 35 43 32C47 29 50 25 50 20C50 12 44 6 36 6C32 6 29 8 27 11L24 17C22 20 18 22 14 21"
    stroke="#0a0a0a"
    stroke-width="3"
    stroke-linecap="round"
    fill="none"
  />
  <!-- Rose gold accent point -->
  <circle cx="32" cy="32" r="4" fill="url(#rose-gold-icon)"/>
</svg>
